<svg width="26" height="26" viewBox="0 0 26 26" fill="none"
    xmlns="http://www.w3.org/2000/svg">
    <path d="M21.7188 0.199219H4.28125C3.25388 0.200341 2.26891 0.608959 1.54245 1.33542C0.81599 2.06188 0.407372 3.04685 0.40625 4.07422V21.5117C0.407372 22.5391 0.81599 23.5241 1.54245 24.2505C2.26891 24.977 3.25388 25.3856 4.28125 25.3867H21.7188C22.7461 25.3856 23.7311 24.977 24.4576 24.2505C25.184 23.5241 25.5926 22.5391 25.5938 21.5117V4.07422C25.5926 3.04685 25.184 2.06188 24.4576 1.33542C23.7311 0.608959 22.7461 0.200341 21.7188 0.199219ZM19.5542 8.57225L11.4167 18.2597C11.3274 18.3661 11.2164 18.452 11.091 18.5116C10.9657 18.5713 10.8289 18.6033 10.6901 18.6055H10.6738C10.538 18.6054 10.4037 18.5768 10.2797 18.5215C10.1557 18.4663 10.0447 18.3855 9.95389 18.2846L6.46639 14.4096C6.37782 14.3156 6.30892 14.2049 6.26374 14.084C6.21856 13.963 6.19802 13.8343 6.20331 13.7053C6.20861 13.5763 6.23964 13.4496 6.29457 13.3328C6.34951 13.216 6.42725 13.1113 6.52322 13.0249C6.61919 12.9385 6.73146 12.8722 6.85343 12.8299C6.97539 12.7875 7.10459 12.77 7.23343 12.7783C7.36228 12.7865 7.48817 12.8205 7.6037 12.8781C7.71923 12.9358 7.82208 13.0159 7.90619 13.1139L10.6484 16.1606L18.0708 7.32619C18.2373 7.1337 18.4728 7.01446 18.7266 6.99424C18.9803 6.97403 19.2317 7.05446 19.4266 7.21815C19.6215 7.38185 19.7441 7.61566 19.768 7.86904C19.7919 8.12242 19.7151 8.37503 19.5542 8.57225Z" fill="#4FAC8D"/>
</svg>
